Coordinates
version=1
nRows=14
nColumns=36
inDegrees=yes

Units are S.I. units (second, meters, Newtons, ...)
If the header above contains a line with 'inDegrees', this indicates whether rotational values are in degrees (yes) or radians (no).

endheader
time	pelvis_tilt	pelvis_list	pelvis_rotation	pelvis_tx	pelvis_ty	pelvis_tz	hip_flexion_r	hip_adduction_r	hip_rotation_r	knee_angle_r	knee_angle_r_beta	ankle_angle_r	subtalar_angle_r	mtp_angle_r	hip_flexion_l	hip_adduction_l	hip_rotation_l	knee_angle_l	knee_angle_l_beta	ankle_angle_l	subtalar_angle_l	mtp_angle_l	lumbar_extension	lumbar_bending	lumbar_rotation	arm_flex_r	arm_add_r	arm_rot_r	elbow_flex_r	pro_sup_r	arm_flex_l	arm_add_l	arm_rot_l	elbow_flex_l	pro_sup_l
      0.00000000	      0.21297751	     -1.33241898	     -0.58923668	     -0.94092683	      1.25472448	     -0.05962324	     -5.86345109	      0.38472026	     -2.85730685	      2.46573267	      0.04303515	     -0.88395901	    -14.18865201	     -5.31232684	     -5.87861073	     -4.74371115	     -0.97803008	      4.12292090	      0.07195854	     11.22290169	      4.20693341	     -5.31232684	     -5.94903424	      4.18750721	     -0.56631335	     15.37437491	     -8.94647768	     41.67577247	     26.81272926	     69.82196032	      9.04471670	     -9.02518987	     32.63376194	     34.21154461	     65.27773380
      0.00416670	     -1.08642224	     -0.31282858	      0.07808343	     -0.93846839	      1.25407411	     -0.06202241	     -4.67417515	     -0.37900726	     -4.06826751	      2.05187074	      0.03581190	      2.76159294	    -10.30431633	     -5.85477286	     -4.85819466	     -3.06062583	      0.29998723	      3.03550424	      0.05297954	     10.82171232	      6.70695576	     -5.85477286	     -4.10931449	      3.06009959	     -0.24996496	     14.79754178	     -9.53132122	     45.34479100	     27.14771407	     70.33410473	      9.95085009	     -9.52691434	     35.46795048	     33.86925797	     66.00284000
      0.00833330	     -1.70559234	      0.74499940	      0.10226526	     -0.93702893	      1.25160558	     -0.06115384	     -4.48482036	     -1.42852637	     -5.48525313	      1.24109878	      0.02166126	      3.49088631	     -8.48032974	     -6.35778662	     -4.68788298	     -1.97515671	     -0.10151926	      2.31759133	      0.04044960	     10.52024716	      7.73449966	     -6.35778662	     -3.29790098	      1.64738261	      0.18786433	     15.10533004	    -10.02883761	     50.45405758	     27.49395635	     70.97664922	     11.06256117	    -10.91591354	     40.32446881	     33.83026541	     66.95861189
      0.01250000	     -1.39279606	      1.23024075	      0.13600700	     -0.93801824	      1.25419680	     -0.06124330	     -5.08869008	     -2.06868268	     -6.15647290	      0.84128626	      0.01468322	      4.35561198	     -6.73532138	     -6.74647755	     -5.50461654	     -1.41072225	     -0.04602778	      1.40529969	      0.02452711	      9.94866688	      7.80097988	     -6.74647755	     -3.72027179	      1.07056280	      0.63681944	     15.27469112	    -10.39100885	     53.08515543	     27.49826002	     70.40425722	     11.84312254	    -11.57346498	     43.28830603	     33.87388173	     67.25643510
      0.01666670	     -1.15487511	      1.44313720	      0.11591517	     -0.94079033	      1.25255910	     -0.06069579	     -5.39707439	     -2.33010747	     -6.06160366	      0.67564164	      0.01179217	      4.73041269	     -6.59219557	     -7.12843162	     -5.82774504	     -1.15662887	     -0.02100488	      1.01918948	      0.01778821	      9.59672625	      7.69680427	     -7.12843162	     -4.24188514	      0.85811467	      0.97880503	     15.58998816	    -10.43469014	     54.49098534	     27.17574569	     68.55583688	     12.56935688	    -11.83592863	     45.42292748	     33.68565231	     66.45643974
      0.02083330	     -0.95063513	      1.55674326	      0.18391441	     -0.94379225	      1.25158953	     -0.06048165	     -5.55177853	     -2.41970443	     -6.25019259	      0.59555495	      0.01039439	      5.17951814	     -6.37376937	     -7.38122063	     -5.81654742	     -1.06267743	      0.04047470	      0.89537141	      0.01562718	      9.22354092	      7.47984658	     -7.38122063	     -4.69726397	      0.73992958	      1.13561555	     16.05387892	    -10.55423095	     56.02966395	     26.97495422	     66.51307710	     13.40829875	    -11.99083002	     47.79330979	     33.22707978	     65.33180456
      0.02500000	     -0.93605172	      1.61138452	      0.31780033	     -0.94333494	      1.25485315	     -0.06084783	     -5.54492995	     -2.48800947	     -6.29212638	      0.54347483	      0.00948543	      5.17500571	     -6.45499804	     -7.48216281	     -5.62923407	     -1.03577850	      0.06205748	      0.84912267	      0.01481999	      8.68318710	      7.17925783	     -7.48216281	     -4.87937147	      0.63878708	      1.31381823	     16.05575100	    -10.56166298	     55.66211813	     26.70529542	     67.78662290	     14.07181234	    -11.79987136	     48.80571165	     32.36686213	     66.98382679
      0.02916670	     -0.84516819	      1.65308649	      0.49605785	     -0.94387458	      1.25371431	     -0.06187742	     -5.65894742	     -2.54152164	     -6.27670583	      0.51126360	      0.00892323	      5.21991689	     -6.25076430	     -7.48450802	     -5.57592021	     -0.99086923	      0.05915185	      0.83022032	      0.01449008	      8.45316871	      6.90815604	     -7.48450802	     -5.20410506	      0.56869711	      1.13270090	     16.16319858	    -10.54824920	     55.42218728	     26.82548050	     67.39591841	     14.35793247	    -11.80074555	     48.79906726	     32.30154377	     66.72647669
      0.03333330	     -0.84821422	      1.63976045	      0.51375329	     -0.94390544	      1.25357538	     -0.06035757	     -5.64856688	     -2.50065926	     -6.31505252	      0.48158615	      0.00840526	      5.23038177	     -6.28263998	     -7.48453598	     -5.46639348	     -1.04659111	     -0.06804499	      0.82719570	      0.01443729	      8.33335065	      6.87243801	     -7.48453598	     -5.32170574	      0.52537566	      1.08904597	     16.21152290	    -10.53584530	     55.41779440	     26.83645043	     67.38756348	     14.51152253	    -11.87522931	     48.79833427	     32.27212317	     66.72883418
      0.03750000	     -0.63332946	      1.64076884	      0.54112534	     -0.94351989	      1.25341504	     -0.05996090	     -5.91348575	     -2.47053383	     -6.29193810	      0.45964573	      0.00802233	      5.14113282	     -6.17511971	     -7.48924087	     -5.68097989	     -1.05876292	     -0.19083474	      0.82518301	      0.01440216	      8.16943600	      6.87308628	     -7.48924087	     -5.65495326	      0.44571972	      1.11127484	     16.11340065	    -10.54588838	     55.00837470	     27.08995746	     66.30591569	     14.76252285	    -11.89354431	     49.18302463	     32.10163396	     66.08814610
      0.04166670	     -0.65903848	      1.63978441	      0.58369007	     -0.94295102	      1.25519795	     -0.06141558	     -5.92410745	     -2.47244195	     -6.24857613	      0.45238920	      0.00789568	      5.10160730	     -6.13188833	     -7.48925269	     -5.66486305	     -1.03728189	     -0.24082403	      0.81212559	      0.01417427	      8.13384463	      6.86249793	     -7.48925269	     -5.69097638	      0.42228807	      1.02676664	     16.04105897	    -10.56560690	     55.01321285	     27.08367604	     66.30045221	     14.74932870	    -11.88029013	     49.20698256	     32.08959685	     66.09093564
      0.04583330	     -0.59528094	      1.60975503	      0.55558402	     -0.94240661	      1.25339849	     -0.06106514	     -6.03907651	     -2.45096312	     -5.99910315	      0.41573639	      0.00725597	      4.87148652	     -6.29354442	     -7.49097909	     -5.80279281	     -1.05887652	     -0.47508398	      0.77939220	      0.01360296	      8.14121117	      7.01208780	     -7.49097909	     -5.69510530	      0.44592345	      0.90669448	     15.95115034	    -10.58988317	     54.58059669	     27.46091917	     65.68588634	     14.64369617	    -11.96932513	     49.25473939	     32.10144574	     65.67263695
      0.05000000	     -0.60744858	      1.58858606	      0.51318771	     -0.94298619	      1.25639915	     -0.06024936	     -6.02976707	     -2.43914244	     -6.31839809	      0.39900843	      0.00696401	      4.87481961	     -5.82364083	     -7.49271351	     -5.85980772	     -1.06243252	     -0.68839196	      0.73914295	      0.01290048	      7.98387936	      6.96067789	     -7.49271351	     -5.64091514	      0.44994946	      0.98241699	     15.82488106	    -10.60615647	     54.41346759	     27.53937463	     65.07503169	     14.68193839	    -11.95149919	     49.91899217	     31.88829868	     65.25740979
      0.05416670	     -0.60786797	      1.55662707	      0.44923462	     -0.94504497	      1.25571960	     -0.05994899	     -5.96326170	     -2.37939918	     -6.44301393	      0.38908745	      0.00679086	      4.72140183	     -5.76331825	     -7.49335544	     -5.89618663	     -1.08162099	     -0.87818443	      0.72655979	      0.01268086	      7.87196295	      7.07352903	     -7.49335544	     -5.70415079	      0.46772686	      0.91325809	     15.86950876	    -10.44891694	     54.06212452	     27.38428364	     64.72652386	     14.68883407	    -11.95807063	     49.72010949	     31.71212478	     64.91427285
